<?xml version="1.0" encoding="UTF-8"?><svg xmlns="http://www.w3.org/2000/svg" xmlns:xlink="http://www.w3.org/1999/xlink" height="149.9" preserveAspectRatio="xMidYMid meet" version="1.0" viewBox="0.0 -0.1 157.7 149.9" width="157.7" zoomAndPan="magnify"><g><g id="change1_1"><path d="m80.125,499.17468 2.5,4.625 2.3125,4.0625 4,4.8125 5.5625,5 6.5625,4.9375 3.375-.0625 3.25-1.4375 3.1875-3.4375 4.25-5.4375 2.4375-3.1875 .875,7.75 2,23.4375 .875,7.8125v12.8125l-.25,14.625-.4375,9.4375-1.625,17.25-2.75,18.0625-3.4375,19.875-.375.625-10.0625-35.25-8.3125-30.4375-4.375-15.125-4.8125-18.8125-4.6875-18.75-2.1875-12.1875-.125-3.6875 .6875-3.5 .875-3.4375 .6875-.375z" fill="#fff" transform="translate(-6.63 -498.81)"/></g><g id="change2_1"><path d="m89.375,528.17468 5.5625-2 3.5625-1.9375 3.25.75 4.9375-1.0625 3.875,2.625-2.875,4.6875-2.0625,3.5-1.125,3.5-.3125,2.9375 1.0625,4.625 3.25,8.4375 2.25,7.75 1,10.25 .8125,9.9375 1.9375,24.6875 1.625,13.25-.75,4.875-2.75,15.4375-.6875-.3125-6.5-23.1875-5.5625-20.75-5.0625-18.4375-3-11 1.0625-2.5 2.1875-17.8125 .6875-6.0625 .0625-2.0625-1.9375-7.0625-4.5-3.0625z" fill="#141414" transform="translate(-6.63 -498.81)"/></g><g id="change2_2"><path d="m7.1308 648.05c1.1676-26 1.3699-52.046 2.8324-78.026 0.4099-7.2812 0.25793-14.694 2.6741-21.675 1.3842-3.9991 1.3618-8.6136 4.6497-11.745 3.8522-3.6687 8.112-7.0356 13.095-9.0499 14.795-5.9804 29.515-12.538 43.438-20.258l5.5372-6.9817c-0.89247 3.4544-1.8125 6.724-1.1026 10.436 2.6106 13.65 5.852 27.235 9.242 40.742l24.943 89.991c3.6305-17.4 5.9953-35.055 7.8722-52.723 1.3536-13.524 0.61373-27.146 0.96669-40.716-1.382-13.114-2.5829-26.244-3.5355-39.396 1.2044 2.4214 2.8186 4.1409 5.3649 5.4077 10.326 5.1375 21.269 9.5038 31.046 15.569 3.2102 1.9916 6.461 4.1079 7.9197 7.9797 2.1919 5.8179 1.4666 11.957 1.4435 17.972-0.11858 30.818-0.8849 61.648-1.3274 92.473h-155.06z" fill="#141414" stroke="#000" transform="translate(-6.63 -498.81)"/></g><path d="m78.624 501.86c1.4645-3.7523 1.3339-3.1658 2.9956 0.48804 3.7034 8.1431 11.753 14.863 19.118 20.006 8.2791 2.3335 13.157-10.396 16.828-13.278" fill="none" stroke="#000" transform="translate(-6.63 -498.81)"/><path d="m82.261 529.61c6.6886-0.82423 13.107-3.3124 18.688-7.0711" fill="none" stroke="#000" transform="translate(-6.63 -498.81)"/><path d="m104.11 522.54c3.9051 1.0987 6.5392 4.328 9.7227 6.4397 1.5396 1.0212 3.7881 0.67344 5.6821 1.0102" fill="none" stroke="#000" transform="translate(-6.63 -498.81)"/><path d="m98.235 524.19c3.6676 1.6378 4.7766 0.78085 8.7398-0.38985" fill="none" stroke="#000" transform="translate(-6.63 -498.81)"/><path d="m88.701 528.16c2.3873 1.2157 5.3718 2.3151 6.0166 5.3598 0.61272 2.8933 1.6454 5.5271 1.1198 8.5808-1.4464 8.4042-1.8683 17.079-3.8535 25.392" fill="none" stroke="#000" transform="translate(-6.63 -498.81)"/><path d="m111.05 526.33c-2.7096 3.3724-5.1911 6.8689-6.2958 11.115-0.89672 2.4037-0.55193 4.8093 0.15439 7.0328 3.0396 7.2817 5.2956 15.016 6.3917 22.803 1.6736 11.89 1.5957 23.968 2.8358 35.928 0.64677 6.2373 1.2133 12.286 1.9021 18.519" fill="none" stroke="#000" transform="translate(-6.63 -498.81)"/><path d="m113.2 648.3-56.442-98.364c9.6655-7.3318 17.342-16.915 23.739-27.148" fill="none" stroke="#000" transform="translate(-6.63 -498.81)"/><path d="m118.25 515.59c3.7038 5.969 6.5149 12.511 11.412 17.689 3.8278 4.0474 8.3834 7.1595 12.705 10.595-0.56764 11.933-0.61061 23.892-2.3661 35.743-1.2719 8.5872-3.4031 16.959-6.3561 25.123-5.2244 14.443-11.141 28.598-16.658 42.927" fill="none" stroke="#000" transform="translate(-6.63 -498.81)"/><path d="m67.487 540.59c-3.509-1.5089-7.0662-2.93-10.102-5.3033 3.8057-9.003 8.1804-17.826 14.397-25.436 0.44833-0.54879 1.5979-1.8991 2.018-2.4698" fill="none" stroke="#000" transform="translate(-6.63 -498.81)"/><path d="m39.459 647.74c0.75724-11.823 2.1899-28.885 3.7939-40.609 0.79318-5.7976 0.74181-11.56-0.26102-17.255-1.9886-11.294-4.8642-22.547-8.3179-33.479-2.2382-7.085-4.5007-15.881-10.178-21.235-0.92567-0.87302-3.1567-2.1466-3.1567-2.1466" fill="none" stroke="#000" transform="translate(-6.63 -498.81)"/><path d="m160.42 534.53c-0.12642 6.3731-0.21772 12.75-1.9905 18.925-2.9084 13.556-5.6482 27.151-7.1945 40.94-1.7981 17.629-3.5593 35.262-5.3359 52.893" fill="none" stroke="#000" transform="translate(-6.63 -498.81)"/><path d="m134.26 538.12c1.3833-1.6177 3.4058-3.8564 4.1687-4.8389s1.3301-0.89996 1.1122-1.1408c-5.2264-6.5565-12.098-11.712-17.125-18.416" fill="none" stroke="#000" transform="translate(-6.63 -498.81)"/></g></svg>