<?xml version="1.0" encoding="UTF-8" standalone="no"?><svg xmlns="http://www.w3.org/2000/svg" xmlns:xlink="http://www.w3.org/1999/xlink" fill="#300013" height="91.3" preserveAspectRatio="xMidYMid meet" version="1" viewBox="0.0 0.0 254.6 91.3" width="254.6" zoomAndPan="magnify"><g id="change1_1"><path d="M247.79,37.79c0.06,0.92,0.11,1.85,0.11,2.79v6.66c0,0.27,0,0.54-0.01,0.81c-0.25,13.74-7.66,26.61-19.36,33.79 c-15.3,9.42-38,6.31-54.46,1.73c-2.55-0.72-5.12-1.55-7.63-2.52c-12.45-4.76-23.89-12.77-29.1-25.18c-0.55-1.31-1.03-2.67-1.43-4.09 c-2.72-9.48-1.84-18.94,1.68-27.13c-5.99-3.86-8.25-4.5-9.09-4.5h-2.98c-0.43,0-2.7,0.22-8.71,4.01c3.7,8.3,4.66,17.95,1.89,27.61 c-0.4,1.42-0.88,2.78-1.43,4.09c-5.21,12.4-16.65,20.42-29.1,25.18c-2.51,0.97-5.07,1.81-7.63,2.52 c-16.46,4.58-39.16,7.69-54.46-1.73c-11.7-7.18-19.1-20.04-19.36-33.79c-0.01-0.27-0.01-0.54-0.01-0.81v-6.66 c0-0.94,0.04-1.87,0.11-2.79C2.92,36.82,0,33.29,0,29.1c0-4.92,4.03-8.95,8.95-8.95h3.28C19.27,8.1,32.33,0,47.29,0h32.41 c14.16,0,26.26,7.12,33.46,17.65c5.33-3.32,9.4-4.96,12.35-4.96h2.98c3.44,0,7.99,2.4,12.65,5.38C148.33,7.31,160.55,0,174.91,0 h32.41c14.96,0,28.02,8.1,35.06,20.15h3.28c4.92,0,8.95,4.03,8.95,8.95C254.61,33.29,251.69,36.82,247.79,37.79z"/></g><g id="change2_1"><path d="M49.11,68c-0.51,0-1.02-0.2-1.41-0.59l-18.5-18.5c-0.78-0.78-0.78-2.05,0-2.83c0.78-0.78,2.05-0.78,2.83,0 l18.5,18.5c0.78,0.78,0.78,2.05,0,2.83C50.14,67.8,49.62,68,49.11,68z M63.53,67.41c0.78-0.78,0.78-2.05,0-2.83l-18.5-18.5 c-0.78-0.78-2.05-0.78-2.83,0c-0.78,0.78-0.78,2.05,0,2.83l18.5,18.5C61.09,67.8,61.6,68,62.11,68S63.14,67.8,63.53,67.41z M180.53,62.41c0.78-0.78,0.78-2.05,0-2.83l-18.5-18.5c-0.78-0.78-2.05-0.78-2.83,0c-0.78,0.78-0.78,2.05,0,2.83l18.5,18.5 c0.39,0.39,0.9,0.59,1.41,0.59S180.13,62.8,180.53,62.41z M193.53,62.41c0.78-0.78,0.78-2.05,0-2.83l-18.5-18.5 c-0.78-0.78-2.05-0.78-2.83,0c-0.78,0.78-0.78,2.05,0,2.83l18.5,18.5c0.39,0.39,0.9,0.59,1.41,0.59S193.13,62.8,193.53,62.41z" fill="#f6f6f6"/></g></svg>