<?xml version="1.0" encoding="UTF-8"?><svg xmlns="http://www.w3.org/2000/svg" xmlns:xlink="http://www.w3.org/1999/xlink" height="941.4" preserveAspectRatio="xMidYMid meet" version="1.0" viewBox="353.6 47.9 300.6 941.4" width="300.6" zoomAndPan="magnify"><g><g id="change1_1"><path d="M 353.960938 93.78125 C 353.613281 69.636719 387.894531 65.929688 387.894531 65.929688 L 548.480469 48.574219 C 554.347656 47.9375 559.617188 52.179688 560.25 58.046875 L 562.828125 81.894531 C 563.464844 87.761719 559.222656 93.03125 553.355469 93.664062 L 424.269531 107.617188 C 420.476562 108.027344 418.921875 112.734375 421.75 115.292969 C 430.828125 123.496094 442.90625 137.808594 431.898438 148.640625 C 415.539062 164.734375 354.308594 117.929688 353.960938 93.78125" fill="#c7c9bb"/></g><g id="change1_2"><path d="M 645.847656 947.625 L 612.871094 951.191406 L 518.890625 81.742188 L 551.871094 78.179688 L 645.847656 947.625" fill="#c7c9bb"/></g><g id="change2_1"><path d="M 645.324219 936.9375 L 628.210938 938.785156 L 611.097656 940.636719 L 612.652344 989.289062 L 633.429688 987.042969 L 654.203125 984.796875 L 645.324219 936.9375" fill="#3f434c"/></g></g></svg>